<svg id="visual" viewBox="0 0 960 540" width="960" height="540" xmlns="http://www.w3.org/2000/svg" xmlns:xlink="http://www.w3.org/1999/xlink" version="1.1"><path d="M604 0L584 12.8C564 25.7 524 51.3 508 77C492 102.7 500 128.3 505.8 154C511.7 179.7 515.3 205.3 507.3 231.2C499.3 257 479.7 283 488.2 308.8C496.7 334.7 533.3 360.3 551.7 386C570 411.7 570 437.3 563.5 463C557 488.7 544 514.3 537.5 527.2L531 540L0 540L0 527.2C0 514.3 0 488.7 0 463C0 437.3 0 411.7 0 386C0 360.3 0 334.7 0 308.8C0 283 0 257 0 231.2C0 205.3 0 179.7 0 154C0 128.3 0 102.7 0 77C0 51.3 0 25.7 0 12.8L0 0Z" fill="#ef978f"></path><path d="M500 0L488.7 12.8C477.3 25.7 454.7 51.3 440.8 77C427 102.7 422 128.3 424 154C426 179.7 435 205.3 440.3 231.2C445.7 257 447.3 283 452.2 308.8C457 334.7 465 360.3 465.8 386C466.7 411.7 460.3 437.3 461.3 463C462.3 488.7 470.7 514.3 474.8 527.2L479 540L0 540L0 527.2C0 514.3 0 488.7 0 463C0 437.3 0 411.7 0 386C0 360.3 0 334.7 0 308.8C0 283 0 257 0 231.2C0 205.3 0 179.7 0 154C0 128.3 0 102.7 0 77C0 51.3 0 25.7 0 12.8L0 0Z" fill="#f08e85"></path><path d="M433 0L424.7 12.8C416.3 25.7 399.7 51.3 394.3 77C389 102.7 395 128.3 379.8 154C364.7 179.7 328.3 205.3 315.8 231.2C303.3 257 314.7 283 319.5 308.8C324.3 334.7 322.7 360.3 341.5 386C360.3 411.7 399.7 437.3 418.5 463C437.3 488.7 435.7 514.3 434.8 527.2L434 540L0 540L0 527.2C0 514.3 0 488.7 0 463C0 437.3 0 411.7 0 386C0 360.3 0 334.7 0 308.8C0 283 0 257 0 231.2C0 205.3 0 179.7 0 154C0 128.3 0 102.7 0 77C0 51.3 0 25.7 0 12.8L0 0Z" fill="#f2857c"></path><path d="M319 0L305.3 12.8C291.7 25.7 264.3 51.3 267.8 77C271.3 102.7 305.7 128.3 308.8 154C312 179.7 284 205.3 265.2 231.2C246.3 257 236.7 283 240.2 308.8C243.7 334.7 260.3 360.3 275.8 386C291.3 411.7 305.7 437.3 308.3 463C311 488.7 302 514.3 297.5 527.2L293 540L0 540L0 527.2C0 514.3 0 488.7 0 463C0 437.3 0 411.7 0 386C0 360.3 0 334.7 0 308.8C0 283 0 257 0 231.2C0 205.3 0 179.7 0 154C0 128.3 0 102.7 0 77C0 51.3 0 25.7 0 12.8L0 0Z" fill="#f27d72"></path><path d="M212 0L215.3 12.8C218.7 25.7 225.3 51.3 227.3 77C229.3 102.7 226.7 128.3 226.2 154C225.7 179.7 227.3 205.3 217.2 231.2C207 257 185 283 169.8 308.8C154.7 334.7 146.3 360.3 160.8 386C175.3 411.7 212.7 437.3 212.7 463C212.7 488.7 175.3 514.3 156.7 527.2L138 540L0 540L0 527.2C0 514.3 0 488.7 0 463C0 437.3 0 411.7 0 386C0 360.3 0 334.7 0 308.8C0 283 0 257 0 231.2C0 205.3 0 179.7 0 154C0 128.3 0 102.7 0 77C0 51.3 0 25.7 0 12.8L0 0Z" fill="#f27368"></path><path d="M148 0L151.8 12.8C155.7 25.7 163.3 51.3 148.5 77C133.7 102.7 96.3 128.3 87.8 154C79.3 179.7 99.7 205.3 115.8 231.2C132 257 144 283 137.8 308.8C131.7 334.7 107.3 360.3 108.2 386C109 411.7 135 437.3 130.7 463C126.3 488.7 91.7 514.3 74.3 527.2L57 540L0 540L0 527.2C0 514.3 0 488.7 0 463C0 437.3 0 411.7 0 386C0 360.3 0 334.7 0 308.8C0 283 0 257 0 231.2C0 205.3 0 179.7 0 154C0 128.3 0 102.7 0 77C0 51.3 0 25.7 0 12.8L0 0Z" fill="#f26a5e"></path></svg>